<svg fill="#ffffff" version="1.1" viewBox="0 0 36 36" xmlns="http://www.w3.org/2000/svg">
 <g transform="translate(0,-2.5)">
  <path d="m3 15c-1.654 0-3-1.346-3-3s1.346-3 3-3 3 1.346 3 3-1.346 3-3 3zm0-4c-0.551 0-1 0.449-1 1s0.449 1 1 1 1-0.449 1-1-0.449-1-1-1z"/>
  <path d="m32 34c-2.206 0-4-1.794-4-4s1.794-4 4-4 4 1.794 4 4-1.794 4-4 4zm0-6c-1.103 0-2 0.897-2 2s0.897 2 2 2 2-0.897 2-2-0.897-2-2-2z"/>
  <path d="m25 7h-1c-0.553 0-1-0.448-1-1s0.447-1 1-1h1c0.553 0 1 0.448 1 1s-0.447 1-1 1z"/>
  <path d="m13 36h-1c-0.552 0-1-0.447-1-1s0.448-1 1-1h1c0.552 0 1 0.447 1 1s-0.448 1-1 1z"/>
  <path d="m34.455 10.5c-1.558-2.694-7.183-1.159-10.708 0.139-1.675-1.033-3.64-1.639-5.747-1.639-6.065 0-11 4.935-11 11 0 0.101 0.013 0.199 0.015 0.3-2.887 2.406-7.024 6.508-5.47 9.2 0.589 1.02 1.833 1.467 3.507 1.467 1.939 0 4.455-0.602 7.195-1.608 1.677 1.034 3.643 1.641 5.753 1.641 6.065 0 11-4.935 11-11 0-0.103-0.013-0.202-0.016-0.305 0.928-0.773 1.779-1.543 2.52-2.297 2.897-2.95 3.891-5.271 2.951-6.898zm-16.455 0.5c4.56 0 8.328 3.411 8.912 7.813-1.997 1.585-4.355 3.175-6.912 4.651-2.779 1.604-5.292 2.791-7.489 3.652-1.073-0.829-1.951-1.892-2.561-3.116h7.05c0.552 0 1-0.447 1-1s-0.448-1-1-1h-7.768c-0.147-0.645-0.232-1.312-0.232-2s0.085-1.355 0.232-2h3.768c0.552 0 1-0.448 1-1s-0.448-1-1-1h-3.05c1.476-2.958 4.526-5 8.05-5zm-14.722 17.5c-0.352-0.609 0.517-2.681 4.061-5.839 0.506 2.022 1.565 3.825 3.018 5.232-4.089 1.331-6.667 1.322-7.079 0.607zm14.722 0.5c-1.161 0-2.267-0.229-3.287-0.63 2.077-0.898 4.217-1.979 6.287-3.174 2.118-1.223 4.109-2.526 5.888-3.846-0.656 4.323-4.385 7.65-8.888 7.65zm10.66-11.665c-0.507-2.025-1.569-3.829-3.025-5.236 4.507-1.492 6.735-1.208 7.088-0.599 0.227 0.393-0.034 1.838-2.646 4.497-0.431 0.44-0.914 0.888-1.417 1.338z"/>
 </g>
</svg>
