<?xml version="1.0" standalone="no"?>
<!DOCTYPE svg PUBLIC "-//W3C//DTD SVG 20010904//EN"
 "http://www.w3.org/TR/2001/REC-SVG-20010904/DTD/svg10.dtd">
<svg version="1.0" xmlns="http://www.w3.org/2000/svg"
 width="700.000000pt" height="700.000000pt" viewBox="0 0 700.000000 700.000000"
 preserveAspectRatio="xMidYMid meet">
<metadata>
Created by potrace 1.11, written by Peter Selinger 2001-2013
</metadata>
<g transform="translate(0.000000,700.000000) scale(0.100000,-0.100000)"
fill="#000000" stroke="none">
<path d="M4634 6509 c-98 -22 -154 -85 -160 -179 -4 -76 40 -151 111 -187 34
-18 265 -25 326 -10 129 31 185 197 103 304 -24 31 -70 63 -104 70 -29 7 -247
8 -276 2z"/>
<path d="M453 5719 c-130 -33 -197 -71 -285 -161 -174 -178 -215 -429 -107
-657 93 -198 304 -331 523 -331 85 0 205 32 285 77 131 72 248 226 281 370 55
240 -45 488 -251 625 -123 82 -306 113 -446 77z m231 -403 c125 -73 120 -259
-9 -334 -58 -33 -151 -26 -203 15 -47 37 -82 105 -82 158 1 150 162 238 294
161z"/>
<path d="M3398 5735 c-2 -2 -41 -5 -88 -9 -95 -8 -147 -14 -170 -21 -8 -2 -33
-7 -55 -11 -145 -22 -368 -99 -538 -184 -286 -144 -506 -322 -720 -583 -104
-127 -227 -331 -292 -487 -56 -131 -112 -313 -131 -420 -2 -14 -7 -36 -9 -50
-5 -26 -15 -86 -21 -130 -2 -14 -6 -88 -9 -165 -5 -129 -7 -141 -28 -158 -24
-21 -104 -89 -176 -152 -110 -95 -465 -460 -545 -560 -306 -384 -426 -685
-365 -923 70 -276 316 -416 729 -416 353 1 757 88 1334 287 l70 24 59 -35
c136 -79 421 -197 529 -217 11 -2 27 -6 36 -9 9 -3 28 -7 42 -10 14 -2 52 -9
85 -15 130 -23 166 -26 345 -26 166 0 318 8 352 20 7 2 31 6 53 9 22 2 47 7
55 10 8 3 27 7 41 10 96 16 295 86 434 152 82 39 216 113 225 124 3 4 12 9 20
12 41 15 238 176 341 278 248 246 419 518 528 843 27 80 69 243 76 296 2 14 6
42 9 61 14 84 17 123 21 249 4 115 8 136 23 147 10 7 32 25 49 41 17 15 40 36
51 45 79 65 228 203 342 318 564 565 769 1012 613 1337 -35 73 -140 181 -213
218 -93 47 -146 63 -310 90 -73 13 -363 6 -448 -10 -9 -1 -42 -6 -72 -10 -30
-4 -64 -9 -75 -11 -11 -2 -31 -6 -45 -9 -223 -43 -459 -107 -738 -201 l-194
-64 -100 55 c-100 54 -301 140 -388 165 -25 7 -56 16 -70 21 -27 10 -38 13
-150 34 -101 19 -124 23 -205 31 -67 6 -302 13 -307 9z m307 -400 c217 -26
469 -109 660 -218 458 -261 791 -745 860 -1252 l6 -40 -168 -126 c-760 -571
-1649 -1080 -2500 -1433 l-129 -53 -60 49 c-140 116 -290 296 -387 463 -26 44
-47 83 -47 87 0 5 315 8 700 8 757 0 740 -1 799 53 30 28 61 93 61 132 0 88
-57 169 -137 193 -30 9 -235 12 -806 12 l-765 0 -12 73 c-6 39 -14 83 -17 97
-16 79 -9 406 11 500 2 8 7 34 11 58 4 23 10 43 14 43 3 1 180 3 393 4 l387 1
47 30 c84 51 115 150 78 242 -16 43 -44 71 -96 98 -29 16 -68 18 -345 19 -171
0 -314 3 -318 6 -3 4 8 30 25 58 16 29 30 54 30 56 0 9 92 138 137 195 296
366 718 597 1178 646 33 4 61 7 63 9 5 5 272 -3 327 -10z m2500 -5 c78 -18
133 -46 153 -79 61 -100 -61 -359 -306 -651 -85 -102 -306 -329 -411 -423
l-64 -58 -46 138 c-65 193 -177 423 -257 529 -13 17 -24 36 -24 42 0 6 -3 12
-8 14 -4 2 -32 35 -61 73 -56 71 -128 152 -168 188 -28 25 -29 33 -5 40 350
103 548 153 691 173 25 3 57 8 71 10 14 2 56 6 95 10 38 4 71 7 72 9 8 6 226
-6 268 -15z m-981 -2022 c-2 -13 -6 -32 -8 -43 -3 -11 -9 -42 -15 -70 -5 -27
-15 -63 -21 -80 -7 -16 -14 -39 -16 -51 -6 -31 -68 -183 -104 -254 -258 -510
-774 -879 -1325 -946 -27 -3 -61 -8 -75 -10 -32 -5 -289 -6 -315 0 -11 2 -47
7 -80 11 -105 12 -395 88 -395 104 0 3 51 28 113 55 121 52 648 311 762 374
39 21 97 54 130 72 152 82 448 257 625 368 236 149 606 402 694 474 28 23 36
22 30 -4z m-3780 -291 c12 -57 71 -216 126 -332 88 -189 225 -391 368 -545 45
-48 66 -77 59 -82 -25 -13 -392 -115 -482 -132 -11 -3 -40 -9 -65 -15 -177
-40 -317 -56 -495 -55 -143 0 -227 15 -281 50 -68 45 -64 155 13 309 36 72
109 189 147 237 11 14 32 41 46 59 70 93 171 202 348 378 210 207 201 202 216
128z"/>
<path d="M6081 2419 c-112 -22 -245 -82 -334 -152 -391 -305 -401 -901 -22
-1209 79 -64 71 -59 140 -95 222 -116 498 -115 720 4 271 145 430 429 411 736
-20 325 -230 591 -546 692 -69 22 -107 28 -205 30 -66 2 -140 -1 -164 -6z
m304 -414 c76 -36 152 -113 190 -190 25 -53 28 -71 29 -160 1 -88 -2 -107 -26
-157 -124 -266 -480 -312 -658 -86 -172 217 -74 525 195 615 67 22 199 11 270
-22z"/>
<path d="M2289 869 c-41 -10 -72 -30 -101 -62 -81 -89 -54 -236 53 -297 38
-21 54 -23 188 -23 136 0 150 1 189 23 105 59 134 201 60 295 -42 54 -90 68
-233 70 -72 1 -142 -2 -156 -6z"/>
</g>
</svg>
